<?xml version="1.0" standalone="no"?>
<!DOCTYPE svg PUBLIC "-//W3C//DTD SVG 20010904//EN"
 "http://www.w3.org/TR/2001/REC-SVG-20010904/DTD/svg10.dtd">
<svg version="1.0" xmlns="http://www.w3.org/2000/svg"
 width="280.000000pt" height="280.000000pt" viewBox="0 0 280.000000 280.000000"
 preserveAspectRatio="xMidYMid meet">
<metadata>
Created by potrace 1.11, written by Peter Selinger 2001-2013
</metadata>
<g transform="translate(0.000000,280.000000) scale(0.100000,-0.100000)"
fill="#000000" stroke="none">
<path d="M1578 2685 c-1 -2 -20 -6 -41 -9 -70 -11 -182 -56 -267 -108 -81 -50
-159 -99 -380 -243 -55 -36 -102 -65 -104 -65 -2 0 -28 -16 -58 -35 -157 -102
-231 -180 -296 -310 -58 -117 -88 -302 -66 -420 8 -48 45 -168 60 -196 12 -24
10 -33 -26 -106 -90 -183 -93 -413 -9 -604 28 -65 83 -154 113 -185 9 -8 21
-23 28 -32 25 -34 114 -105 178 -142 157 -91 347 -130 520 -106 71 11 200 55
255 89 50 30 73 45 240 152 143 92 168 107 205 130 180 113 274 182 326 239
109 119 172 278 179 443 2 73 -1 103 -19 192 -9 43 -39 125 -51 144 -10 15 -6
30 25 93 21 41 45 105 54 142 20 80 27 215 14 280 -5 26 -11 59 -13 74 -6 31
-16 60 -45 122 -11 25 -20 50 -20 55 0 6 -3 11 -8 11 -4 0 -16 17 -27 38 -34
64 -192 213 -270 254 -68 35 -205 91 -205 83 0 -2 -15 1 -32 7 -30 9 -252 21
-260 13z"/>
</g>
</svg>
